# xmcd CD database file
#
# Track frame offsets:
#	150
#	14840
#	27797
#	44922
#	55992
#	72355
#	84007
#	113160
#	132887
#	149492
#	163320
#	179177
#	205167
#	222602
#	234992
#	248187
#	264670
#	282637
#	296577
#	313647
#
# Disc length: 4344 seconds
#
# Revision: 2
# Processed by: cddbd v1.5.2PL0 Copyright (c) Steve Scherf et al.
# Submitted via: CDex 2.04
#
DISCID=4710f614
DTITLE=Various Artist - Cool Jazz CD2
DYEAR=1995
DGENRE=Jazz
TTITLE0=Sarah Vaughan - Lover Man
TTITLE1=Billie Holiday - That Ole Devil Called Love
TTITLE2=Lena Horne - September Song
TTITLE3=Frank Sinatra - Night And Day
TTITLE4=Maria Muldaur - Midnight At The Oasis
TTITLE5=Erroll Garner - I Can't Believe That You're In Love With Me
TTITLE6=Maurizio Giamarco Quartet - Voce Vai Ver
TTITLE7=Astrud Gilberto - Far Away
TTITLE8=Eydie Gorme - God Bless The Child
TTITLE9=Irma Thomas - I've Been Lovin' You Too Long
TTITLE10=Charlie Parker - I Get A Kick Out Of You
TTITLE11=Dizzy Gillespie - I Let A Song Go Out Of My Heart
TTITLE12=Ella Fitzgerald - April In Paris
TTITLE13=Dinah Washington - Teach Me Tonight
TTITLE14=Nat King Cole - Sweet Lorraine
TTITLE15=Django Reinhardt - Confessin'
TTITLE16=Count Basie - Makin' Whoopee
TTITLE17=Peggy Lee - Ask Anyone Who Know
TTITLE18=Brook Benton - Rainy Night In Georgia
TTITLE19=Sam Cooke - You Send Me
EXTD=YEAR: 1995
EXTT0=
EXTT1=
EXTT2=
EXTT3=
EXTT4=
EXTT5=
EXTT6=
EXTT7=
EXTT8=
EXTT9=
EXTT10=
EXTT11=
EXTT12=
EXTT13=
EXTT14=
EXTT15=
EXTT16=
EXTT17=
EXTT18=
EXTT19=
PLAYORDER=
